<?xml version="1.0" encoding="utf-8"?>
<!-- Generator: Adobe Illustrator 24.2.1, SVG Export Plug-In . SVG Version: 6.00 Build 0)  -->
<svg version="1.1" id="Capa_1" xmlns="http://www.w3.org/2000/svg" xmlns:xlink="http://www.w3.org/1999/xlink" x="0px" y="0px"
	 viewBox="0 0 469.3 469.3" style="enable-background:new 0 0 469.3 469.3;" xml:space="preserve">
<style type="text/css">
	.st0{fill:#FF4D71;}
	.st1{fill:none;}
	.st2{font-family:'CourierNewPS-BoldMT';}
	.st3{font-size:65.0578px;}
</style>
<g>
	<g>
		<path class="st0" d="M194.2,101.6l-29.1-32c-5.8-5.8-15.1-5.8-21,0c-1.8,1.8-3.1,4-3.7,6.4c-5.8-4.4-14.1-4-19.5,1.3
			c-1.8,1.8-3.1,4-3.8,6.4c-5.8-4.4-14.1-4-19.5,1.3c-1.8,1.8-3,4-3.7,6.2L80.2,77.7c-5.8-5.8-15.1-5.8-21,0
			c-5.8,5.8-5.8,15.1,0,20.9l52.7,52.7l-31.3,4.9c-8.4,1.2-14.8,8.5-14.8,17.1c0,6.4,5.2,11.6,11.6,11.6h73
			c11.4,0,22.1-4.4,30.1-12.5l12.2-12.2c8-8,12.5-18.7,12.5-30.1C205.2,119.6,201.3,109.4,194.2,101.6z M187.3,154.8L175.1,167
			c-6.6,6.6-15.3,10.2-24.6,10.2h-73c-2.1,0-3.9-1.7-3.9-3.9c0-4.7,3.5-8.8,8.2-9.4l38.8-6.1c1.4-0.2,2.6-1.2,3.1-2.6
			c0.4-1.4,0.1-2.9-0.9-3.9L64.7,93.2c-2.7-2.7-2.7-7.2,0-10c1.4-1.4,3.2-2.1,5-2.1c1.8,0,3.6,0.7,5,2.1l38.7,38.7
			c1.5,1.5,4,1.5,5.5,0c0.8-0.8,1.1-1.7,1.1-2.7c0-1-0.4-2-1.1-2.7l-15.8-15.8c-2.7-2.7-2.7-7.2,0-10c2.7-2.7,7.2-2.7,10,0
			l15.8,15.8c1.5,1.5,4,1.5,5.5,0c0.8-0.8,1.1-1.7,1.1-2.7c0-1-0.4-2-1.1-2.7l-8.1-8.1c-2.7-2.7-2.7-7.2,0-10c2.7-2.7,7.2-2.7,10,0
			l8.1,8.1c0,0,0,0,0,0l0,0c0,0,0,0,0,0c0,0,0,0,0,0h0c0,0,0,0,0,0c1.5,1.4,3.9,1.4,5.4-0.1c1.5-1.5,1.5-4,0-5.5l-0.3-0.3
			c-1.3-1.3-2.1-3.1-2.1-5c0-1.9,0.7-3.6,2.1-5c2.8-2.7,7.2-2.7,9.8-0.1l29,31.9c5.8,6.4,9,14.7,9,23.4
			C197.5,139.5,193.9,148.2,187.3,154.8z"/>
	</g>
</g>
<g>
	<g>
		<path class="st0" d="M101.5,73.9c-5.6-12.5-18.1-20.5-31.7-20.5c-19.2,0-34.8,15.6-34.8,34.8c0,13.6,8.1,26.1,20.5,31.7
			c0.5,0.2,1.1,0.3,1.6,0.3c1.5,0,2.9-0.9,3.5-2.3c0.9-2,0-4.2-1.9-5.1c-9.7-4.4-16-14.1-16-24.7c0-14.9,12.2-27.1,27.1-27.1
			c10.6,0,20.3,6.3,24.7,16c0.9,2,3.2,2.8,5.1,1.9C101.5,78.1,102.3,75.8,101.5,73.9z"/>
	</g>
</g>
<rect x="102.1" y="206.4" class="st1" width="326" height="142.4"/>
<text transform="matrix(1 0 0 1 110.7465 258.2158)"><tspan x="0" y="0" class="st0 st2 st3">Vuelta a </tspan><tspan x="38.5" y="78.1" class="st0 st2 st3">Inicio</tspan></text>
</svg>
