<?xml version="1.0" encoding="utf-8"?>
<!-- Generator: Adobe Illustrator 24.1.0, SVG Export Plug-In . SVG Version: 6.00 Build 0)  -->
<svg version="1.1" id="_x33_0" xmlns="http://www.w3.org/2000/svg" xmlns:xlink="http://www.w3.org/1999/xlink" x="0px" y="0px"
	 viewBox="0 0 512 606" style="enable-background:new 0 0 512 606;" xml:space="preserve">
<style type="text/css">
	.st0{fill:#6848BA;}
	.st1{fill:none;stroke:#000000;stroke-width:18;stroke-miterlimit:10;}
	.st2{fill:#6848BA;stroke:#020202;stroke-width:17;stroke-linecap:round;stroke-miterlimit:10;}
</style>
<circle class="st0" cx="480" cy="123.4" r="24"/>
<circle class="st0" cx="368" cy="59.4" r="24"/>
<circle class="st0" cx="144" cy="91.4" r="24"/>
<circle class="st0" cx="32" cy="123.4" r="24"/>
<path class="st0" d="M264,123.4h-24c-50.6,0-64-52.3-64-80v-8h8c79.1,0,80,71.3,80,72V123.4z"/>
<path class="st0" d="M272,179.4h-24v-8c0-26.7,18.5-72,88-72h8v8C344,132.3,329,179.4,272,179.4z"/>
<path class="st0" d="M264,227.4h-20.4c-40.8,0-51.6-36.6-51.6-56v-8h8c63.3,0,64,49.3,64,49.8V227.4z"/>
<path class="st0" d="M268.4,275.4H248v-14.2c0-0.5,0.7-49.8,64-49.8h8v8C320,238.8,309.2,275.4,268.4,275.4z"/>
<path class="st1" d="M176,432.1c-10.3-10.3-16-24.1-16-38.9c0-12.2,4.2-24.2,11.8-33.8c10.2-12.7,25.3-20,41.6-20
	c10.6,0,20.8,3.1,29.6,8.9l13,8.7l13-8.7c8.8-5.8,19-8.9,29.6-8.9c16.3,0,31.4,7.3,41.6,20c7.6,9.5,11.8,21.5,11.8,34
	c0,14.6-5.7,28.4-16,38.7l-80,80L176,432.1z"/>
<path d="M488,115.4v-16h-16v16h-16v16h16v16h16v-16h16v-16H488z"/>
<path d="M360,83.4h16v-16h16v-16h-16v-16h-16v16h-16v16h16V83.4z"/>
<path d="M296,67.4h16v16h-16V67.4z"/>
<path d="M408,131.4h16v16h-16V131.4z"/>
<path d="M440,51.4h16v16h-16V51.4z"/>
<path d="M24,147.4h16v-16h16v-16H40v-16H24v16H8v16h16V147.4z"/>
<path d="M136,115.4h16v-16h16v-16h-16v-16h-16v16h-16v16h16V115.4z"/>
<path d="M88,131.4h16v16H88V131.4z"/>
<path d="M56,35.4h16v16H56V35.4z"/>
<circle class="st0" cx="384" cy="235.4" r="24"/>
<path d="M392,227.4v-16h-16v16h-16v16h16v16h16v-16h16v-16H392z"/>
<circle class="st0" cx="128" cy="267.4" r="24"/>
<path d="M136,259.4v-16h-16v16h-16v16h16v16h16v-16h16v-16H136z"/>
<line class="st2" x1="257" y1="357" x2="257" y2="123.4"/>
</svg>
