<?xml version="1.0" encoding="utf-8"?>
<!-- Generator: Adobe Illustrator 24.1.0, SVG Export Plug-In . SVG Version: 6.00 Build 0)  -->
<svg version="1.1" id="Layer_1" xmlns="http://www.w3.org/2000/svg" xmlns:xlink="http://www.w3.org/1999/xlink" x="0px" y="0px"
	 viewBox="0 0 512 601" style="enable-background:new 0 0 512 601;" xml:space="preserve">
<style type="text/css">
	.st0{fill:#6848BA;}
	.st1{fill:#333333;}
</style>
<g>
	<path class="st0" d="M262.3,146.2c-68.9,0-125,56.1-125,125c0,41.7,21.1,80.7,55.6,103.8v49h138.9v-49
		c34.5-23.1,55.6-62.2,55.6-103.8C387.3,202.2,331.2,146.2,262.3,146.2z M262.3,299c-15.3,0-27.8-12.4-27.8-27.8
		s12.4-27.8,27.8-27.8c15.3,0,27.8,12.4,27.8,27.8S277.6,299,262.3,299z"/>
	<path d="M181.3,460.2c-1.5,3.8-2.4,8-2.4,12.4c0,19.2,15.6,34.7,34.7,34.7h97.2c19.2,0,34.7-15.6,34.7-34.7c0-4.4-0.9-8.5-2.4-12.4
		c9.7-6.2,16.3-16.9,16.3-29.3c0-19.2-15.6-34.7-34.7-34.7h-48.6v-85.9c16.1-5.8,27.8-21,27.8-39.1c0-23-18.7-41.7-41.7-41.7
		s-41.7,18.7-41.7,41.7c0,18.1,11.7,33.4,27.8,39.1v85.9h-48.6c-19.2,0-34.7,15.6-34.7,34.7C165,443.3,171.6,454.1,181.3,460.2z
		 M262.3,257.3c7.7,0,13.9,6.2,13.9,13.9c0,7.7-6.2,13.9-13.9,13.9c-7.7,0-13.9-6.2-13.9-13.9C248.4,263.5,254.6,257.3,262.3,257.3z
		 M310.9,479.5h-97.2c-3.8,0-6.9-3.1-6.9-6.9c0-3.8,3.1-6.9,6.9-6.9h97.2c3.8,0,6.9,3.1,6.9,6.9
		C317.8,476.4,314.7,479.5,310.9,479.5z M199.8,424h125c3.8,0,6.9,3.1,6.9,6.9c0,3.8-3.1,6.9-6.9,6.9h-13.9h-97.2h-13.9
		c-3.8,0-6.9-3.1-6.9-6.9C192.8,427.1,196,424,199.8,424z"/>
	<rect x="248.4" y="104.5" width="27.8" height="27.8"/>
	<rect x="172" y="125" transform="matrix(0.8661 -0.4999 0.4999 0.8661 -44.5239 111.5207)" width="27.8" height="27.8"/>
	<rect x="116.1" y="180.9" transform="matrix(0.4999 -0.8661 0.8661 0.4999 -103.7239 209.9643)" width="27.8" height="27.8"/>
	<rect x="95.6" y="257.3" width="27.8" height="27.8"/>
	<rect x="116.1" y="333.7" transform="matrix(0.8661 -0.4999 0.4999 0.8661 -156.3668 111.5067)" width="27.8" height="27.8"/>
	<rect x="380.7" y="333.7" transform="matrix(0.4999 -0.8661 0.8661 0.4999 -103.6839 515.5777)" width="27.8" height="27.8"/>
	<rect x="401.2" y="257.3" width="27.8" height="27.8"/>
	<rect x="380.7" y="180.9" transform="matrix(0.8661 -0.4999 0.4999 0.8661 -44.5385 223.3504)" width="27.8" height="27.8"/>
	<rect x="324.8" y="125" transform="matrix(0.4999 -0.8661 0.8661 0.4999 49.1177 362.757)" width="27.8" height="27.8"/>
</g>
<polygon points="507,134.9 490.3,134.9 490.3,118.2 473.5,118.2 473.5,134.9 456.8,134.9 456.8,151.6 473.5,151.6 473.5,168.4 
	490.3,168.4 490.3,151.6 507,151.6 "/>
<polygon class="st1" points="406.6,84.7 423.3,84.7 423.3,68 440.1,68 440.1,51.2 423.3,51.2 423.3,34.5 406.6,34.5 406.6,51.2 
	389.9,51.2 389.9,68 406.6,68 "/>
<polygon points="38.5,357.4 21.7,357.4 21.7,374.1 5,374.1 5,390.8 21.7,390.8 21.7,407.6 38.5,407.6 38.5,390.8 55.2,390.8 
	55.2,374.1 38.5,374.1 "/>
<polygon class="st1" points="63.8,164.2 63.8,147.4 47,147.4 47,130.7 30.3,130.7 30.3,147.4 13.6,147.4 13.6,164.2 30.3,164.2 
	30.3,180.9 47,180.9 47,164.2 "/>
<polygon points="127.9,491.2 127.9,474.5 144.6,474.5 144.6,457.8 127.9,457.8 127.9,441 111.1,441 111.1,457.8 94.4,457.8 
	94.4,474.5 111.1,474.5 111.1,491.2 "/>
<polygon class="st1" points="474.7,378.2 458,378.2 458,394.9 441.2,394.9 441.2,411.7 458,411.7 458,428.4 474.7,428.4 
	474.7,411.7 491.4,411.7 491.4,394.9 474.7,394.9 "/>
<circle class="st0" cx="63.6" cy="540.4" r="25.1"/>
<path d="M55.2,565.5h16.7v-16.7h16.7V532H71.9v-16.7H55.2V532H38.5v16.7h16.7V565.5z"/>
<circle class="st0" cx="415" cy="59.6" r="25.1"/>
<path d="M406.6,84.7h16.7V68h16.7V51.2h-16.7V34.5h-16.7v16.7h-16.7V68h16.7V84.7z"/>
<circle class="st0" cx="38.7" cy="155.8" r="25.1"/>
<path d="M30.3,180.9H47v-16.7h16.7v-16.7H47v-16.7H30.3v16.7H13.6v16.7h16.7V180.9z"/>
<circle class="st0" cx="466.3" cy="403.3" r="25.1"/>
<path d="M458,428.4h16.7v-16.7h16.7v-16.7h-16.7v-16.7H458v16.7h-16.7v16.7H458V428.4z"/>
<polygon points="458,494.8 441.2,494.8 441.2,478.1 424.5,478.1 424.5,494.8 407.8,494.8 407.8,511.6 424.5,511.6 424.5,528.3 
	441.2,528.3 441.2,511.6 458,511.6 "/>
<polygon points="135.7,41.5 119,41.5 119,24.8 102.2,24.8 102.2,41.5 85.5,41.5 85.5,58.2 102.2,58.2 102.2,75 119,75 119,58.2 
	135.7,58.2 "/>
</svg>
